<?xml version="1.0" standalone="no"?><!DOCTYPE svg PUBLIC "-//W3C//DTD SVG 1.1//EN" "http://www.w3.org/Graphics/SVG/1.1/DTD/svg11.dtd"><svg t="1645756173410" class="icon" viewBox="0 0 1024 1024" version="1.1" xmlns="http://www.w3.org/2000/svg" p-id="3693" xmlns:xlink="http://www.w3.org/1999/xlink" width="32" height="32"><defs><style type="text/css"></style></defs><path d="M492.13 794.81c-34.19 34.18-79.85 53-128.57 53s-94.38-18.82-128.57-53c-34.29-34.3-53.17-79.95-53.17-128.57s18.88-94.29 53.17-128.58l137.98-137.97 3.29 3.28L630.1 656.84 492.13 794.81z" fill="#49CE95" p-id="3694"></path><path d="M799.13 487.83L661.15 625.78l-3.29-3.28-253.85-253.86 137.95-137.98c70.92-70.86 186.26-70.88 257.16 0 70.89 70.91 70.89 186.26 0.01 257.17z" fill="#FA0A55" p-id="3695"></path><path d="M830.17 199.63c-88-88.02-231.24-88.02-319.24 0L357.98 352.57 203.95 506.62c-88.02 88.01-88.02 231.21 0 319.22 42.47 42.48 99.16 65.88 159.61 65.88 60.46 0 117.15-23.39 159.62-65.88l306.99-306.98c88.01-88.01 88.01-231.23 0-319.23zM492.13 794.81c-34.19 34.18-79.85 53-128.57 53s-94.38-18.82-128.57-53c-34.29-34.3-53.17-79.95-53.17-128.57s18.88-94.29 53.17-128.58l137.98-137.97 3.29 3.28L630.1 656.84 492.13 794.81z m307-306.98L661.15 625.78l-3.29-3.28-253.85-253.86 137.95-137.98c70.92-70.86 186.26-70.88 257.16 0 70.89 70.91 70.89 186.26 0.01 257.17z" p-id="3696"></path><path d="M602.59 295.36c26.86-26.88 68.45-34.65 103.5-19.36 5.36 2.36 11.34 2.45 16.79 0.33 5.45-2.14 9.76-6.29 12.1-11.65 4.85-11.09-0.23-24.05-11.33-28.91-17.54-7.66-36.22-11.38-54.78-11.38-35.86 0-71.28 13.87-97.33 39.92l-46.29 46.29c-8.56 8.56-8.56 22.47 0 31.03 8.26 8.32 22.75 8.31 31.03 0.01l46.31-46.28z" fill="#FFFFFF" p-id="3697"></path></svg>